# xmcd
#
# Track frame offsets:
#	150
#	16692
#	74135
#
# Disc length: 1256 seconds
#
# Revision: 1
# Processed by: cddbd v1.5.2PL0 Copyright (c) Steve Scherf et al.
# Submitted via: audiograbber 1.83.01
#
DISCID=2104e603
DTITLE=Samuli Edelmann - Palava P‰‰ [CDS)
DYEAR=1994
DGENRE=Pop
TTITLE0=Palava P‰‰
TTITLE1=In Un Altro Mondo (Versione Lunga)
TTITLE2=In Un Altro Mondo (Versione Breve)
EXTD=TR.
EXTT0=
EXTT1=
EXTT2=
PLAYORDER=
